<mxfile host="Electron" modified="2025-04-30T13:36:58.951Z" agent="Mozilla/5.0 (Windows NT 10.0; Win64; x64) AppleWebKit/537.36 (KHTML, like Gecko) draw.io/21.2.1 Chrome/112.0.5615.87 Electron/24.1.2 Safari/537.36" etag="VbINQ7sq7ocyu9jcK4AH" version="21.2.1" type="device">
  <diagram name="Page-1" id="ZTmdoaWKD2SZCcePQ5H2">
    <mxGraphModel dx="1867" dy="661" grid="1" gridSize="10" guides="1" tooltips="1" connect="1" arrows="1" fold="1" page="1" pageScale="1" pageWidth="827" pageHeight="1169" math="0" shadow="0">
      <root>
        <mxCell id="0" />
        <mxCell id="1" parent="0" />
        <mxCell id="-fOlm_mtpXjJGPSWZ3jW-1" value="" style="endArrow=none;html=1;rounded=0;entryX=0;entryY=0.5;entryDx=0;entryDy=0;" parent="1" target="Y2kxIMavle0iw3i643FU-4" edge="1">
          <mxGeometry relative="1" as="geometry">
            <mxPoint x="220" y="288.5" as="sourcePoint" />
            <mxPoint x="370" y="279" as="targetPoint" />
          </mxGeometry>
        </mxCell>
        <mxCell id="-fOlm_mtpXjJGPSWZ3jW-2" value="1" style="resizable=0;html=1;whiteSpace=wrap;align=left;verticalAlign=bottom;" parent="-fOlm_mtpXjJGPSWZ3jW-1" connectable="0" vertex="1">
          <mxGeometry x="-1" relative="1" as="geometry" />
        </mxCell>
        <mxCell id="-fOlm_mtpXjJGPSWZ3jW-3" value="1" style="resizable=0;html=1;whiteSpace=wrap;align=right;verticalAlign=bottom;" parent="-fOlm_mtpXjJGPSWZ3jW-1" connectable="0" vertex="1">
          <mxGeometry x="1" relative="1" as="geometry" />
        </mxCell>
        <mxCell id="Y2kxIMavle0iw3i643FU-3" value="Refugee" style="whiteSpace=wrap;html=1;align=center;" parent="1" vertex="1">
          <mxGeometry x="120" y="280" width="100" height="40" as="geometry" />
        </mxCell>
        <mxCell id="Y2kxIMavle0iw3i643FU-4" value="Lives at" style="shape=rhombus;perimeter=rhombusPerimeter;whiteSpace=wrap;html=1;align=center;" parent="1" vertex="1">
          <mxGeometry x="370" y="260" width="120" height="60" as="geometry" />
        </mxCell>
        <mxCell id="Y2kxIMavle0iw3i643FU-6" value="&lt;div&gt;&lt;span style=&quot;background-color: initial;&quot;&gt;Place of Residence&lt;/span&gt;&lt;br&gt;&lt;/div&gt;" style="whiteSpace=wrap;html=1;align=center;" parent="1" vertex="1">
          <mxGeometry x="610" y="268" width="120" height="40" as="geometry" />
        </mxCell>
        <mxCell id="Y2kxIMavle0iw3i643FU-7" value="Relation with" style="shape=rhombus;perimeter=rhombusPerimeter;whiteSpace=wrap;html=1;align=center;" parent="1" vertex="1">
          <mxGeometry x="170" y="350" width="120" height="60" as="geometry" />
        </mxCell>
        <mxCell id="Y2kxIMavle0iw3i643FU-8" value="Refugee Familiy" style="whiteSpace=wrap;html=1;align=center;" parent="1" vertex="1">
          <mxGeometry x="120" y="490" width="100" height="40" as="geometry" />
        </mxCell>
        <mxCell id="Y2kxIMavle0iw3i643FU-12" value="First Name" style="ellipse;whiteSpace=wrap;html=1;align=center;" parent="1" vertex="1">
          <mxGeometry y="180" width="100" height="40" as="geometry" />
        </mxCell>
        <mxCell id="Y2kxIMavle0iw3i643FU-13" value="Last Name" style="ellipse;whiteSpace=wrap;html=1;align=center;" parent="1" vertex="1">
          <mxGeometry x="120" y="180" width="100" height="40" as="geometry" />
        </mxCell>
        <mxCell id="Y2kxIMavle0iw3i643FU-14" value="DOB" style="ellipse;whiteSpace=wrap;html=1;align=center;" parent="1" vertex="1">
          <mxGeometry x="227" y="180" width="100" height="40" as="geometry" />
        </mxCell>
        <mxCell id="Y2kxIMavle0iw3i643FU-15" value="Nationality" style="ellipse;whiteSpace=wrap;html=1;align=center;" parent="1" vertex="1">
          <mxGeometry x="11" y="100" width="100" height="40" as="geometry" />
        </mxCell>
        <mxCell id="Y2kxIMavle0iw3i643FU-16" value="Age" style="ellipse;whiteSpace=wrap;html=1;align=center;dashed=1;" parent="1" vertex="1">
          <mxGeometry x="-130" y="170" width="100" height="40" as="geometry" />
        </mxCell>
        <mxCell id="Y2kxIMavle0iw3i643FU-18" value="Date Arrival DK" style="ellipse;whiteSpace=wrap;html=1;align=center;" parent="1" vertex="1">
          <mxGeometry x="240" y="100" width="100" height="40" as="geometry" />
        </mxCell>
        <mxCell id="Y2kxIMavle0iw3i643FU-24" value="Street Name" style="ellipse;whiteSpace=wrap;html=1;align=center;fontStyle=4" parent="1" vertex="1">
          <mxGeometry x="480" y="100" width="100" height="40" as="geometry" />
        </mxCell>
        <mxCell id="Y2kxIMavle0iw3i643FU-25" value="Street Number" style="ellipse;whiteSpace=wrap;html=1;align=center;fontStyle=4" parent="1" vertex="1">
          <mxGeometry x="600" y="90" width="100" height="40" as="geometry" />
        </mxCell>
        <mxCell id="Y2kxIMavle0iw3i643FU-26" value="Postal Code" style="ellipse;whiteSpace=wrap;html=1;align=center;fontStyle=4" parent="1" vertex="1">
          <mxGeometry x="710" y="100" width="100" height="40" as="geometry" />
        </mxCell>
        <mxCell id="Y2kxIMavle0iw3i643FU-30" value="Family ID" style="ellipse;whiteSpace=wrap;html=1;align=center;fontStyle=4;" parent="1" vertex="1">
          <mxGeometry x="120" y="580" width="100" height="40" as="geometry" />
        </mxCell>
        <mxCell id="Y2kxIMavle0iw3i643FU-33" value="Address" style="ellipse;whiteSpace=wrap;html=1;align=center;fontStyle=0;" parent="1" vertex="1">
          <mxGeometry x="610" y="200" width="100" height="40" as="geometry" />
        </mxCell>
        <mxCell id="Y2kxIMavle0iw3i643FU-34" value="Refugee Coordinator Lastname" style="ellipse;whiteSpace=wrap;html=1;align=center;" parent="1" vertex="1">
          <mxGeometry x="290" y="220" width="120" height="48" as="geometry" />
        </mxCell>
        <mxCell id="-fOlm_mtpXjJGPSWZ3jW-7" value="" style="endArrow=none;html=1;rounded=0;" parent="1" edge="1">
          <mxGeometry relative="1" as="geometry">
            <mxPoint x="490" y="289.5" as="sourcePoint" />
            <mxPoint x="610" y="289.83333333333337" as="targetPoint" />
          </mxGeometry>
        </mxCell>
        <mxCell id="-fOlm_mtpXjJGPSWZ3jW-8" value="0" style="resizable=0;html=1;whiteSpace=wrap;align=left;verticalAlign=bottom;" parent="-fOlm_mtpXjJGPSWZ3jW-7" connectable="0" vertex="1">
          <mxGeometry x="-1" relative="1" as="geometry" />
        </mxCell>
        <mxCell id="-fOlm_mtpXjJGPSWZ3jW-9" value="N" style="resizable=0;html=1;whiteSpace=wrap;align=right;verticalAlign=bottom;" parent="-fOlm_mtpXjJGPSWZ3jW-7" connectable="0" vertex="1">
          <mxGeometry x="1" relative="1" as="geometry" />
        </mxCell>
        <mxCell id="-fOlm_mtpXjJGPSWZ3jW-11" value="" style="endArrow=none;html=1;rounded=0;entryX=1;entryY=0.5;entryDx=0;entryDy=0;" parent="1" target="Y2kxIMavle0iw3i643FU-7" edge="1">
          <mxGeometry relative="1" as="geometry">
            <mxPoint x="220" y="310" as="sourcePoint" />
            <mxPoint x="340" y="380" as="targetPoint" />
            <Array as="points">
              <mxPoint x="340" y="310" />
              <mxPoint x="340" y="380" />
            </Array>
          </mxGeometry>
        </mxCell>
        <mxCell id="-fOlm_mtpXjJGPSWZ3jW-12" value="0" style="resizable=0;html=1;whiteSpace=wrap;align=left;verticalAlign=bottom;" parent="-fOlm_mtpXjJGPSWZ3jW-11" connectable="0" vertex="1">
          <mxGeometry x="-1" relative="1" as="geometry" />
        </mxCell>
        <mxCell id="-fOlm_mtpXjJGPSWZ3jW-13" value="N" style="resizable=0;html=1;whiteSpace=wrap;align=right;verticalAlign=bottom;" parent="-fOlm_mtpXjJGPSWZ3jW-11" connectable="0" vertex="1">
          <mxGeometry x="1" relative="1" as="geometry" />
        </mxCell>
        <mxCell id="-fOlm_mtpXjJGPSWZ3jW-23" value="" style="endArrow=none;html=1;rounded=0;entryX=0;entryY=0.5;entryDx=0;entryDy=0;" parent="1" target="Y2kxIMavle0iw3i643FU-7" edge="1">
          <mxGeometry relative="1" as="geometry">
            <mxPoint x="130" y="320" as="sourcePoint" />
            <mxPoint x="170" y="420" as="targetPoint" />
            <Array as="points">
              <mxPoint x="130" y="350" />
              <mxPoint x="130" y="380" />
            </Array>
          </mxGeometry>
        </mxCell>
        <mxCell id="-fOlm_mtpXjJGPSWZ3jW-24" value="0" style="resizable=0;html=1;whiteSpace=wrap;align=left;verticalAlign=bottom;" parent="-fOlm_mtpXjJGPSWZ3jW-23" connectable="0" vertex="1">
          <mxGeometry x="-1" relative="1" as="geometry">
            <mxPoint y="20" as="offset" />
          </mxGeometry>
        </mxCell>
        <mxCell id="-fOlm_mtpXjJGPSWZ3jW-25" value="N" style="resizable=0;html=1;whiteSpace=wrap;align=right;verticalAlign=bottom;" parent="-fOlm_mtpXjJGPSWZ3jW-23" connectable="0" vertex="1">
          <mxGeometry x="1" relative="1" as="geometry" />
        </mxCell>
        <mxCell id="-fOlm_mtpXjJGPSWZ3jW-26" value="Is a part of&amp;nbsp;" style="shape=rhombus;perimeter=rhombusPerimeter;whiteSpace=wrap;html=1;align=center;" parent="1" vertex="1">
          <mxGeometry x="10" y="370" width="120" height="60" as="geometry" />
        </mxCell>
        <mxCell id="-fOlm_mtpXjJGPSWZ3jW-34" value="" style="endArrow=none;html=1;rounded=0;entryX=0;entryY=0.5;entryDx=0;entryDy=0;" parent="1" target="Y2kxIMavle0iw3i643FU-3" edge="1">
          <mxGeometry relative="1" as="geometry">
            <mxPoint x="69.67" y="370" as="sourcePoint" />
            <mxPoint x="120" y="290" as="targetPoint" />
            <Array as="points">
              <mxPoint x="70" y="300" />
              <mxPoint x="100" y="300" />
            </Array>
          </mxGeometry>
        </mxCell>
        <mxCell id="-fOlm_mtpXjJGPSWZ3jW-35" value="N" style="resizable=0;html=1;whiteSpace=wrap;align=left;verticalAlign=bottom;" parent="-fOlm_mtpXjJGPSWZ3jW-34" connectable="0" vertex="1">
          <mxGeometry x="-1" relative="1" as="geometry" />
        </mxCell>
        <mxCell id="-fOlm_mtpXjJGPSWZ3jW-36" value="0" style="resizable=0;html=1;whiteSpace=wrap;align=right;verticalAlign=bottom;" parent="-fOlm_mtpXjJGPSWZ3jW-34" connectable="0" vertex="1">
          <mxGeometry x="1" relative="1" as="geometry">
            <mxPoint y="20" as="offset" />
          </mxGeometry>
        </mxCell>
        <mxCell id="-fOlm_mtpXjJGPSWZ3jW-40" value="" style="endArrow=none;html=1;rounded=0;entryX=-0.009;entryY=0.658;entryDx=0;entryDy=0;entryPerimeter=0;" parent="1" target="Y2kxIMavle0iw3i643FU-8" edge="1">
          <mxGeometry relative="1" as="geometry">
            <mxPoint x="70" y="430" as="sourcePoint" />
            <mxPoint x="70" y="500" as="targetPoint" />
            <Array as="points">
              <mxPoint x="70" y="516" />
            </Array>
          </mxGeometry>
        </mxCell>
        <mxCell id="-fOlm_mtpXjJGPSWZ3jW-41" value="1" style="resizable=0;html=1;whiteSpace=wrap;align=left;verticalAlign=bottom;" parent="-fOlm_mtpXjJGPSWZ3jW-40" connectable="0" vertex="1">
          <mxGeometry x="-1" relative="1" as="geometry">
            <mxPoint y="20" as="offset" />
          </mxGeometry>
        </mxCell>
        <mxCell id="-fOlm_mtpXjJGPSWZ3jW-42" value="N" style="resizable=0;html=1;whiteSpace=wrap;align=right;verticalAlign=bottom;" parent="-fOlm_mtpXjJGPSWZ3jW-40" connectable="0" vertex="1">
          <mxGeometry x="1" relative="1" as="geometry" />
        </mxCell>
        <mxCell id="49d7pE5HosrRR1D9x8mO-1" value="" style="endArrow=none;html=1;rounded=0;entryX=0.5;entryY=0;entryDx=0;entryDy=0;" parent="1" target="Y2kxIMavle0iw3i643FU-3" edge="1">
          <mxGeometry relative="1" as="geometry">
            <mxPoint x="50" y="219" as="sourcePoint" />
            <mxPoint x="210" y="219" as="targetPoint" />
          </mxGeometry>
        </mxCell>
        <mxCell id="49d7pE5HosrRR1D9x8mO-3" value="" style="endArrow=none;html=1;rounded=0;entryX=0.5;entryY=0;entryDx=0;entryDy=0;" parent="1" target="Y2kxIMavle0iw3i643FU-3" edge="1">
          <mxGeometry relative="1" as="geometry">
            <mxPoint x="170" y="220" as="sourcePoint" />
            <mxPoint x="290" y="281" as="targetPoint" />
          </mxGeometry>
        </mxCell>
        <mxCell id="49d7pE5HosrRR1D9x8mO-4" value="" style="endArrow=none;html=1;rounded=0;entryX=0.5;entryY=0;entryDx=0;entryDy=0;exitX=0.5;exitY=1;exitDx=0;exitDy=0;" parent="1" source="Y2kxIMavle0iw3i643FU-14" edge="1">
          <mxGeometry relative="1" as="geometry">
            <mxPoint x="170" y="220" as="sourcePoint" />
            <mxPoint x="170" y="280" as="targetPoint" />
          </mxGeometry>
        </mxCell>
        <mxCell id="49d7pE5HosrRR1D9x8mO-5" value="" style="endArrow=none;html=1;rounded=0;exitX=0.293;exitY=1.008;exitDx=0;exitDy=0;exitPerimeter=0;" parent="1" source="Y2kxIMavle0iw3i643FU-18" edge="1">
          <mxGeometry relative="1" as="geometry">
            <mxPoint x="300" y="140" as="sourcePoint" />
            <mxPoint x="170" y="280" as="targetPoint" />
          </mxGeometry>
        </mxCell>
        <mxCell id="49d7pE5HosrRR1D9x8mO-6" value="" style="endArrow=none;html=1;rounded=0;entryX=0.65;entryY=1.042;entryDx=0;entryDy=0;entryPerimeter=0;" parent="1" target="Y2kxIMavle0iw3i643FU-15" edge="1">
          <mxGeometry relative="1" as="geometry">
            <mxPoint x="170" y="280" as="sourcePoint" />
            <mxPoint x="40" y="140" as="targetPoint" />
          </mxGeometry>
        </mxCell>
        <mxCell id="49d7pE5HosrRR1D9x8mO-8" value="" style="endArrow=none;html=1;rounded=0;exitX=0;exitY=0.5;exitDx=0;exitDy=0;" parent="1" source="Y2kxIMavle0iw3i643FU-34" edge="1">
          <mxGeometry relative="1" as="geometry">
            <mxPoint x="309" y="140" as="sourcePoint" />
            <mxPoint x="210" y="280" as="targetPoint" />
            <Array as="points">
              <mxPoint x="290" y="250" />
            </Array>
          </mxGeometry>
        </mxCell>
        <mxCell id="49d7pE5HosrRR1D9x8mO-237" value="Time Stayed in DK" style="ellipse;whiteSpace=wrap;html=1;align=center;dashed=1;" parent="1" vertex="1">
          <mxGeometry x="-60" y="240" width="130" height="40" as="geometry" />
        </mxCell>
        <mxCell id="49d7pE5HosrRR1D9x8mO-238" value="" style="endArrow=none;html=1;rounded=0;entryX=0.65;entryY=1.042;entryDx=0;entryDy=0;entryPerimeter=0;exitX=0;exitY=0.25;exitDx=0;exitDy=0;" parent="1" source="Y2kxIMavle0iw3i643FU-3" edge="1">
          <mxGeometry relative="1" as="geometry">
            <mxPoint x="100" y="290" as="sourcePoint" />
            <mxPoint x="17" y="280" as="targetPoint" />
          </mxGeometry>
        </mxCell>
        <mxCell id="49d7pE5HosrRR1D9x8mO-239" value="" style="endArrow=none;html=1;rounded=0;entryX=0.161;entryY=-0.113;entryDx=0;entryDy=0;entryPerimeter=0;" parent="1" target="Y2kxIMavle0iw3i643FU-3" edge="1">
          <mxGeometry relative="1" as="geometry">
            <mxPoint x="-40" y="200" as="sourcePoint" />
            <mxPoint x="80" y="261" as="targetPoint" />
          </mxGeometry>
        </mxCell>
        <mxCell id="49d7pE5HosrRR1D9x8mO-240" value="" style="endArrow=none;html=1;rounded=0;exitX=0.293;exitY=1.008;exitDx=0;exitDy=0;exitPerimeter=0;entryX=0.5;entryY=0;entryDx=0;entryDy=0;" parent="1" edge="1">
          <mxGeometry relative="1" as="geometry">
            <mxPoint x="663" y="240" as="sourcePoint" />
            <mxPoint x="664" y="268" as="targetPoint" />
          </mxGeometry>
        </mxCell>
        <mxCell id="49d7pE5HosrRR1D9x8mO-241" value="" style="endArrow=none;html=1;rounded=0;exitX=0.5;exitY=1;exitDx=0;exitDy=0;entryX=0;entryY=0;entryDx=0;entryDy=0;" parent="1" source="Y2kxIMavle0iw3i643FU-24" target="Y2kxIMavle0iw3i643FU-33" edge="1">
          <mxGeometry relative="1" as="geometry">
            <mxPoint x="673" y="250" as="sourcePoint" />
            <mxPoint x="640" y="210" as="targetPoint" />
          </mxGeometry>
        </mxCell>
        <mxCell id="49d7pE5HosrRR1D9x8mO-242" value="" style="endArrow=none;html=1;rounded=0;exitX=0.543;exitY=0.982;exitDx=0;exitDy=0;exitPerimeter=0;" parent="1" source="Y2kxIMavle0iw3i643FU-26" target="Y2kxIMavle0iw3i643FU-33" edge="1">
          <mxGeometry relative="1" as="geometry">
            <mxPoint x="760" y="144" as="sourcePoint" />
            <mxPoint x="872" y="200" as="targetPoint" />
          </mxGeometry>
        </mxCell>
        <mxCell id="49d7pE5HosrRR1D9x8mO-243" value="" style="endArrow=none;html=1;rounded=0;exitX=0.5;exitY=1;exitDx=0;exitDy=0;" parent="1" source="Y2kxIMavle0iw3i643FU-25" edge="1">
          <mxGeometry relative="1" as="geometry">
            <mxPoint x="650" y="140" as="sourcePoint" />
            <mxPoint x="650" y="200" as="targetPoint" />
          </mxGeometry>
        </mxCell>
        <mxCell id="49d7pE5HosrRR1D9x8mO-246" value="City" style="ellipse;whiteSpace=wrap;html=1;align=center;dashed=1;" parent="1" vertex="1">
          <mxGeometry x="740" y="188" width="100" height="40" as="geometry" />
        </mxCell>
        <mxCell id="49d7pE5HosrRR1D9x8mO-247" value="" style="endArrow=none;html=1;rounded=0;exitX=0.323;exitY=0.954;exitDx=0;exitDy=0;exitPerimeter=0;" parent="1" source="49d7pE5HosrRR1D9x8mO-246" edge="1">
          <mxGeometry relative="1" as="geometry">
            <mxPoint x="781" y="210" as="sourcePoint" />
            <mxPoint x="710" y="270" as="targetPoint" />
          </mxGeometry>
        </mxCell>
        <mxCell id="49d7pE5HosrRR1D9x8mO-248" value="" style="endArrow=none;html=1;rounded=0;exitX=0.293;exitY=1.008;exitDx=0;exitDy=0;exitPerimeter=0;entryX=0.5;entryY=0;entryDx=0;entryDy=0;" parent="1" target="Y2kxIMavle0iw3i643FU-30" edge="1">
          <mxGeometry relative="1" as="geometry">
            <mxPoint x="169" y="530" as="sourcePoint" />
            <mxPoint x="70" y="670" as="targetPoint" />
          </mxGeometry>
        </mxCell>
        <mxCell id="49d7pE5HosrRR1D9x8mO-250" value="Asylum Card ID" style="ellipse;whiteSpace=wrap;html=1;align=center;fontStyle=4;" parent="1" vertex="1">
          <mxGeometry x="-89" y="308" width="100" height="40" as="geometry" />
        </mxCell>
        <mxCell id="49d7pE5HosrRR1D9x8mO-251" value="" style="endArrow=none;html=1;rounded=0;entryX=0.65;entryY=1.042;entryDx=0;entryDy=0;entryPerimeter=0;exitX=0.1;exitY=0.25;exitDx=0;exitDy=0;exitPerimeter=0;" parent="1" source="Y2kxIMavle0iw3i643FU-3" edge="1">
          <mxGeometry relative="1" as="geometry">
            <mxPoint x="112.5" y="340" as="sourcePoint" />
            <mxPoint x="9.5" y="330" as="targetPoint" />
          </mxGeometry>
        </mxCell>
        <mxCell id="49d7pE5HosrRR1D9x8mO-253" value="Personal Photo" style="ellipse;whiteSpace=wrap;html=1;align=center;fillColor=#f8cecc;strokeColor=#b85450;" parent="1" vertex="1">
          <mxGeometry x="350" y="180" width="100" height="40" as="geometry" />
        </mxCell>
        <mxCell id="49d7pE5HosrRR1D9x8mO-255" value="" style="endArrow=none;html=1;rounded=0;" parent="1" edge="1">
          <mxGeometry relative="1" as="geometry">
            <mxPoint x="350" y="200" as="sourcePoint" />
            <mxPoint x="191" y="280" as="targetPoint" />
          </mxGeometry>
        </mxCell>
        <mxCell id="49d7pE5HosrRR1D9x8mO-256" value="Fingerprint" style="ellipse;whiteSpace=wrap;html=1;align=center;fillColor=#f8cecc;strokeColor=#b85450;" parent="1" vertex="1">
          <mxGeometry x="-170" y="268" width="100" height="40" as="geometry" />
        </mxCell>
        <mxCell id="49d7pE5HosrRR1D9x8mO-258" value="" style="endArrow=none;html=1;rounded=0;" parent="1" edge="1">
          <mxGeometry relative="1" as="geometry">
            <mxPoint x="-70" y="289" as="sourcePoint" />
            <mxPoint x="130" y="289" as="targetPoint" />
          </mxGeometry>
        </mxCell>
      </root>
    </mxGraphModel>
  </diagram>
</mxfile>
